<mxfile host="app.diagrams.net" agent="Mozilla/5.0 (Windows NT 10.0; Win64; x64) AppleWebKit/537.36 (KHTML, like Gecko) Chrome/126.0.0.0 YaBrowser/24.7.0.0 Safari/537.36" version="24.7.16">
  <diagram name="Страница — 1" id="ycyfg65JBRT5AijXIMNN">
    <mxGraphModel dx="1562" dy="839" grid="1" gridSize="10" guides="1" tooltips="1" connect="1" arrows="1" fold="1" page="1" pageScale="1" pageWidth="850" pageHeight="1100" math="0" shadow="0">
      <root>
        <mxCell id="0" />
        <mxCell id="1" parent="0" />
        <mxCell id="8l2GJ8tF7-ZwVZrpQlIH-1" value="&lt;font style=&quot;font-size: 16px;&quot;&gt;Ожидание&amp;nbsp;&lt;/font&gt;&lt;div style=&quot;font-size: 16px;&quot;&gt;&lt;font style=&quot;font-size: 16px;&quot;&gt;ввода&lt;/font&gt;&lt;/div&gt;" style="strokeWidth=2;html=1;shape=mxgraph.flowchart.start_2;whiteSpace=wrap;" vertex="1" parent="1">
          <mxGeometry x="140" y="290" width="100" height="100" as="geometry" />
        </mxCell>
        <mxCell id="8l2GJ8tF7-ZwVZrpQlIH-2" value="&lt;span style=&quot;font-size: 16px;&quot;&gt;Обработка&amp;nbsp;&lt;/span&gt;" style="strokeWidth=2;html=1;shape=mxgraph.flowchart.start_2;whiteSpace=wrap;" vertex="1" parent="1">
          <mxGeometry x="410" y="290" width="100" height="100" as="geometry" />
        </mxCell>
        <mxCell id="8l2GJ8tF7-ZwVZrpQlIH-3" style="edgeStyle=orthogonalEdgeStyle;rounded=0;orthogonalLoop=1;jettySize=auto;html=1;entryX=0;entryY=0.5;entryDx=0;entryDy=0;entryPerimeter=0;" edge="1" parent="1" source="8l2GJ8tF7-ZwVZrpQlIH-1" target="8l2GJ8tF7-ZwVZrpQlIH-2">
          <mxGeometry relative="1" as="geometry" />
        </mxCell>
        <mxCell id="8l2GJ8tF7-ZwVZrpQlIH-4" value="&lt;font style=&quot;font-size: 16px;&quot;&gt;Нажатие кнопки&lt;/font&gt;" style="edgeLabel;html=1;align=center;verticalAlign=middle;resizable=0;points=[];" vertex="1" connectable="0" parent="8l2GJ8tF7-ZwVZrpQlIH-3">
          <mxGeometry x="0.1153" y="1" relative="1" as="geometry">
            <mxPoint x="-15" y="21" as="offset" />
          </mxGeometry>
        </mxCell>
        <mxCell id="8l2GJ8tF7-ZwVZrpQlIH-5" value="&lt;span style=&quot;font-size: 16px;&quot;&gt;Вывод на дисплей&lt;/span&gt;" style="strokeWidth=2;html=1;shape=mxgraph.flowchart.start_2;whiteSpace=wrap;" vertex="1" parent="1">
          <mxGeometry x="690" y="140" width="100" height="100" as="geometry" />
        </mxCell>
        <mxCell id="8l2GJ8tF7-ZwVZrpQlIH-6" style="edgeStyle=orthogonalEdgeStyle;rounded=1;orthogonalLoop=1;jettySize=auto;html=1;entryX=0;entryY=0.5;entryDx=0;entryDy=0;entryPerimeter=0;exitX=0.5;exitY=0;exitDx=0;exitDy=0;exitPerimeter=0;curved=0;" edge="1" parent="1" source="8l2GJ8tF7-ZwVZrpQlIH-2" target="8l2GJ8tF7-ZwVZrpQlIH-5">
          <mxGeometry relative="1" as="geometry">
            <mxPoint x="350" y="150" as="sourcePoint" />
            <mxPoint x="540" y="60" as="targetPoint" />
          </mxGeometry>
        </mxCell>
        <mxCell id="8l2GJ8tF7-ZwVZrpQlIH-7" value="&lt;font style=&quot;font-size: 16px;&quot;&gt;Число&lt;/font&gt;" style="edgeLabel;html=1;align=center;verticalAlign=middle;resizable=0;points=[];" vertex="1" connectable="0" parent="8l2GJ8tF7-ZwVZrpQlIH-6">
          <mxGeometry x="0.1153" y="1" relative="1" as="geometry">
            <mxPoint x="36" y="-19" as="offset" />
          </mxGeometry>
        </mxCell>
        <mxCell id="8l2GJ8tF7-ZwVZrpQlIH-8" style="edgeStyle=orthogonalEdgeStyle;rounded=0;orthogonalLoop=1;jettySize=auto;html=1;exitX=1;exitY=0.5;exitDx=0;exitDy=0;exitPerimeter=0;entryX=0;entryY=0.5;entryDx=0;entryDy=0;entryPerimeter=0;" edge="1" parent="1" source="8l2GJ8tF7-ZwVZrpQlIH-2" target="8l2GJ8tF7-ZwVZrpQlIH-10">
          <mxGeometry relative="1" as="geometry">
            <mxPoint x="570" y="339.5" as="sourcePoint" />
            <mxPoint x="690" y="340" as="targetPoint" />
          </mxGeometry>
        </mxCell>
        <mxCell id="8l2GJ8tF7-ZwVZrpQlIH-9" value="&lt;span style=&quot;font-size: 16px;&quot;&gt;Ок&lt;/span&gt;" style="edgeLabel;html=1;align=center;verticalAlign=middle;resizable=0;points=[];" vertex="1" connectable="0" parent="8l2GJ8tF7-ZwVZrpQlIH-8">
          <mxGeometry x="0.1153" y="1" relative="1" as="geometry">
            <mxPoint x="-15" y="21" as="offset" />
          </mxGeometry>
        </mxCell>
        <mxCell id="8l2GJ8tF7-ZwVZrpQlIH-10" value="&lt;span style=&quot;font-size: 16px;&quot;&gt;Отсчёт времени&lt;/span&gt;" style="strokeWidth=2;html=1;shape=mxgraph.flowchart.start_2;whiteSpace=wrap;" vertex="1" parent="1">
          <mxGeometry x="690" y="290" width="100" height="100" as="geometry" />
        </mxCell>
        <mxCell id="8l2GJ8tF7-ZwVZrpQlIH-11" style="edgeStyle=orthogonalEdgeStyle;rounded=1;orthogonalLoop=1;jettySize=auto;html=1;exitX=0.5;exitY=1;exitDx=0;exitDy=0;exitPerimeter=0;entryX=0;entryY=0.5;entryDx=0;entryDy=0;entryPerimeter=0;curved=0;" edge="1" parent="1" target="8l2GJ8tF7-ZwVZrpQlIH-1" source="8l2GJ8tF7-ZwVZrpQlIH-2">
          <mxGeometry relative="1" as="geometry">
            <mxPoint x="520" y="480" as="sourcePoint" />
            <mxPoint x="700" y="480" as="targetPoint" />
            <Array as="points">
              <mxPoint x="460" y="480" />
              <mxPoint x="120" y="480" />
              <mxPoint x="120" y="340" />
            </Array>
          </mxGeometry>
        </mxCell>
        <mxCell id="8l2GJ8tF7-ZwVZrpQlIH-12" value="&lt;font style=&quot;font-size: 16px;&quot;&gt;Сброс&lt;/font&gt;" style="edgeLabel;html=1;align=center;verticalAlign=middle;resizable=0;points=[];" vertex="1" connectable="0" parent="8l2GJ8tF7-ZwVZrpQlIH-11">
          <mxGeometry x="0.1153" y="1" relative="1" as="geometry">
            <mxPoint x="59" y="21" as="offset" />
          </mxGeometry>
        </mxCell>
        <mxCell id="8l2GJ8tF7-ZwVZrpQlIH-14" style="edgeStyle=orthogonalEdgeStyle;rounded=1;orthogonalLoop=1;jettySize=auto;html=1;exitX=0.5;exitY=0;exitDx=0;exitDy=0;exitPerimeter=0;entryX=0;entryY=0.5;entryDx=0;entryDy=0;entryPerimeter=0;curved=0;" edge="1" parent="1" source="8l2GJ8tF7-ZwVZrpQlIH-5" target="8l2GJ8tF7-ZwVZrpQlIH-1">
          <mxGeometry relative="1" as="geometry">
            <mxPoint x="470" y="400" as="sourcePoint" />
            <mxPoint x="150" y="350" as="targetPoint" />
            <Array as="points">
              <mxPoint x="740" y="120" />
              <mxPoint x="120" y="120" />
              <mxPoint x="120" y="340" />
            </Array>
          </mxGeometry>
        </mxCell>
        <mxCell id="8l2GJ8tF7-ZwVZrpQlIH-15" value="&lt;font style=&quot;font-size: 16px;&quot;&gt;Сброс&lt;/font&gt;" style="edgeLabel;html=1;align=center;verticalAlign=middle;resizable=0;points=[];" vertex="1" connectable="0" parent="8l2GJ8tF7-ZwVZrpQlIH-14">
          <mxGeometry x="0.1153" y="1" relative="1" as="geometry">
            <mxPoint x="59" y="21" as="offset" />
          </mxGeometry>
        </mxCell>
        <mxCell id="8l2GJ8tF7-ZwVZrpQlIH-16" value="&lt;span style=&quot;font-size: 16px;&quot;&gt;Вывод оставшегося времени&lt;/span&gt;" style="strokeWidth=2;html=1;shape=mxgraph.flowchart.start_2;whiteSpace=wrap;" vertex="1" parent="1">
          <mxGeometry x="900" y="290" width="100" height="100" as="geometry" />
        </mxCell>
        <mxCell id="8l2GJ8tF7-ZwVZrpQlIH-17" style="edgeStyle=orthogonalEdgeStyle;rounded=1;orthogonalLoop=1;jettySize=auto;html=1;exitX=1;exitY=0.5;exitDx=0;exitDy=0;exitPerimeter=0;entryX=0;entryY=0.5;entryDx=0;entryDy=0;entryPerimeter=0;curved=0;" edge="1" parent="1" source="8l2GJ8tF7-ZwVZrpQlIH-10" target="8l2GJ8tF7-ZwVZrpQlIH-16">
          <mxGeometry relative="1" as="geometry">
            <mxPoint x="850" y="240" as="sourcePoint" />
            <mxPoint x="1020" y="240" as="targetPoint" />
          </mxGeometry>
        </mxCell>
        <mxCell id="8l2GJ8tF7-ZwVZrpQlIH-18" value="&lt;span style=&quot;font-size: 16px;&quot;&gt;Старт&lt;/span&gt;" style="edgeLabel;html=1;align=center;verticalAlign=middle;resizable=0;points=[];" vertex="1" connectable="0" parent="8l2GJ8tF7-ZwVZrpQlIH-17">
          <mxGeometry x="0.1153" y="1" relative="1" as="geometry">
            <mxPoint x="-15" y="21" as="offset" />
          </mxGeometry>
        </mxCell>
        <mxCell id="8l2GJ8tF7-ZwVZrpQlIH-19" value="&lt;font style=&quot;font-size: 16px;&quot;&gt;Ожидание&amp;nbsp;&lt;/font&gt;&lt;div style=&quot;font-size: 16px;&quot;&gt;&lt;font style=&quot;font-size: 16px;&quot;&gt;ввода&lt;/font&gt;&lt;/div&gt;" style="strokeWidth=2;html=1;shape=mxgraph.flowchart.start_2;whiteSpace=wrap;" vertex="1" parent="1">
          <mxGeometry x="690" y="440" width="100" height="100" as="geometry" />
        </mxCell>
        <mxCell id="8l2GJ8tF7-ZwVZrpQlIH-20" style="edgeStyle=orthogonalEdgeStyle;rounded=1;orthogonalLoop=1;jettySize=auto;html=1;exitX=0.5;exitY=0;exitDx=0;exitDy=0;exitPerimeter=0;entryX=0.5;entryY=0;entryDx=0;entryDy=0;entryPerimeter=0;curved=0;" edge="1" parent="1" source="8l2GJ8tF7-ZwVZrpQlIH-16" target="8l2GJ8tF7-ZwVZrpQlIH-10">
          <mxGeometry relative="1" as="geometry">
            <mxPoint x="800" y="350" as="sourcePoint" />
            <mxPoint x="890" y="350" as="targetPoint" />
          </mxGeometry>
        </mxCell>
        <mxCell id="8l2GJ8tF7-ZwVZrpQlIH-22" style="edgeStyle=orthogonalEdgeStyle;rounded=0;orthogonalLoop=1;jettySize=auto;html=1;entryX=0.5;entryY=0;entryDx=0;entryDy=0;entryPerimeter=0;exitX=0.5;exitY=1;exitDx=0;exitDy=0;exitPerimeter=0;" edge="1" parent="1" source="8l2GJ8tF7-ZwVZrpQlIH-10" target="8l2GJ8tF7-ZwVZrpQlIH-19">
          <mxGeometry relative="1" as="geometry">
            <mxPoint x="900" y="580" as="sourcePoint" />
            <mxPoint x="1070" y="580" as="targetPoint" />
          </mxGeometry>
        </mxCell>
        <mxCell id="8l2GJ8tF7-ZwVZrpQlIH-24" value="&lt;span style=&quot;font-size: 16px;&quot;&gt;Обработка&amp;nbsp;&lt;/span&gt;" style="strokeWidth=2;html=1;shape=mxgraph.flowchart.start_2;whiteSpace=wrap;" vertex="1" parent="1">
          <mxGeometry x="690" y="590" width="100" height="100" as="geometry" />
        </mxCell>
        <mxCell id="8l2GJ8tF7-ZwVZrpQlIH-28" style="edgeStyle=orthogonalEdgeStyle;rounded=0;orthogonalLoop=1;jettySize=auto;html=1;entryX=0.5;entryY=0;entryDx=0;entryDy=0;entryPerimeter=0;exitX=0.5;exitY=1;exitDx=0;exitDy=0;exitPerimeter=0;" edge="1" parent="1" source="8l2GJ8tF7-ZwVZrpQlIH-19" target="8l2GJ8tF7-ZwVZrpQlIH-24">
          <mxGeometry relative="1" as="geometry">
            <mxPoint x="750" y="400" as="sourcePoint" />
            <mxPoint x="750" y="450" as="targetPoint" />
          </mxGeometry>
        </mxCell>
        <mxCell id="8l2GJ8tF7-ZwVZrpQlIH-29" value="&lt;font style=&quot;font-size: 16px;&quot;&gt;Нажатие кнопки&lt;/font&gt;" style="edgeLabel;html=1;align=center;verticalAlign=middle;resizable=0;points=[];" vertex="1" connectable="0" parent="8l2GJ8tF7-ZwVZrpQlIH-28">
          <mxGeometry x="0.1153" y="1" relative="1" as="geometry">
            <mxPoint x="-1" y="-2" as="offset" />
          </mxGeometry>
        </mxCell>
        <mxCell id="8l2GJ8tF7-ZwVZrpQlIH-30" style="edgeStyle=orthogonalEdgeStyle;rounded=1;orthogonalLoop=1;jettySize=auto;html=1;exitX=0.5;exitY=1;exitDx=0;exitDy=0;exitPerimeter=0;curved=0;entryX=0;entryY=0.5;entryDx=0;entryDy=0;entryPerimeter=0;" edge="1" parent="1" source="8l2GJ8tF7-ZwVZrpQlIH-24" target="8l2GJ8tF7-ZwVZrpQlIH-1">
          <mxGeometry relative="1" as="geometry">
            <mxPoint x="470" y="400" as="sourcePoint" />
            <mxPoint x="30" y="530" as="targetPoint" />
          </mxGeometry>
        </mxCell>
        <mxCell id="8l2GJ8tF7-ZwVZrpQlIH-31" value="&lt;font style=&quot;font-size: 16px;&quot;&gt;Сброс&lt;/font&gt;" style="edgeLabel;html=1;align=center;verticalAlign=middle;resizable=0;points=[];" vertex="1" connectable="0" parent="8l2GJ8tF7-ZwVZrpQlIH-30">
          <mxGeometry x="0.1153" y="1" relative="1" as="geometry">
            <mxPoint x="59" y="21" as="offset" />
          </mxGeometry>
        </mxCell>
        <mxCell id="8l2GJ8tF7-ZwVZrpQlIH-32" style="edgeStyle=orthogonalEdgeStyle;rounded=1;orthogonalLoop=1;jettySize=auto;html=1;exitX=0.5;exitY=1;exitDx=0;exitDy=0;exitPerimeter=0;entryX=0.5;entryY=0;entryDx=0;entryDy=0;entryPerimeter=0;curved=0;" edge="1" parent="1" source="8l2GJ8tF7-ZwVZrpQlIH-10" target="8l2GJ8tF7-ZwVZrpQlIH-34">
          <mxGeometry relative="1" as="geometry">
            <mxPoint x="1310" y="530" as="sourcePoint" />
            <mxPoint x="990" y="480" as="targetPoint" />
          </mxGeometry>
        </mxCell>
        <mxCell id="8l2GJ8tF7-ZwVZrpQlIH-33" value="&lt;font style=&quot;font-size: 16px;&quot;&gt;Время равно 0&lt;/font&gt;" style="edgeLabel;html=1;align=center;verticalAlign=middle;resizable=0;points=[];" vertex="1" connectable="0" parent="8l2GJ8tF7-ZwVZrpQlIH-32">
          <mxGeometry x="0.1153" y="1" relative="1" as="geometry">
            <mxPoint x="-9" y="11" as="offset" />
          </mxGeometry>
        </mxCell>
        <mxCell id="8l2GJ8tF7-ZwVZrpQlIH-34" value="&lt;span style=&quot;font-size: 16px;&quot;&gt;Конец отсчёта&lt;/span&gt;" style="strokeWidth=2;html=1;shape=mxgraph.flowchart.start_2;whiteSpace=wrap;" vertex="1" parent="1">
          <mxGeometry x="900" y="440" width="100" height="100" as="geometry" />
        </mxCell>
        <mxCell id="8l2GJ8tF7-ZwVZrpQlIH-35" value="&lt;font style=&quot;font-size: 16px;&quot;&gt;Ожидание&amp;nbsp;&lt;/font&gt;&lt;div style=&quot;font-size: 16px;&quot;&gt;&lt;font style=&quot;font-size: 16px;&quot;&gt;ввода&lt;/font&gt;&lt;/div&gt;" style="strokeWidth=2;html=1;shape=mxgraph.flowchart.start_2;whiteSpace=wrap;" vertex="1" parent="1">
          <mxGeometry x="900" y="570" width="100" height="100" as="geometry" />
        </mxCell>
        <mxCell id="8l2GJ8tF7-ZwVZrpQlIH-36" style="edgeStyle=orthogonalEdgeStyle;rounded=0;orthogonalLoop=1;jettySize=auto;html=1;entryX=0.5;entryY=0;entryDx=0;entryDy=0;entryPerimeter=0;exitX=0.5;exitY=1;exitDx=0;exitDy=0;exitPerimeter=0;" edge="1" parent="1" source="8l2GJ8tF7-ZwVZrpQlIH-34" target="8l2GJ8tF7-ZwVZrpQlIH-35">
          <mxGeometry relative="1" as="geometry">
            <mxPoint x="750" y="550" as="sourcePoint" />
            <mxPoint x="750" y="600" as="targetPoint" />
          </mxGeometry>
        </mxCell>
        <mxCell id="8l2GJ8tF7-ZwVZrpQlIH-37" value="&lt;font style=&quot;font-size: 16px;&quot;&gt;Нажатие кнопки&lt;/font&gt;" style="edgeLabel;html=1;align=center;verticalAlign=middle;resizable=0;points=[];" vertex="1" connectable="0" parent="8l2GJ8tF7-ZwVZrpQlIH-36">
          <mxGeometry x="0.1153" y="1" relative="1" as="geometry">
            <mxPoint x="-1" y="-2" as="offset" />
          </mxGeometry>
        </mxCell>
        <mxCell id="8l2GJ8tF7-ZwVZrpQlIH-38" style="edgeStyle=orthogonalEdgeStyle;rounded=1;orthogonalLoop=1;jettySize=auto;html=1;exitX=0.5;exitY=1;exitDx=0;exitDy=0;exitPerimeter=0;curved=0;entryX=0;entryY=0.5;entryDx=0;entryDy=0;entryPerimeter=0;" edge="1" parent="1" source="8l2GJ8tF7-ZwVZrpQlIH-35" target="8l2GJ8tF7-ZwVZrpQlIH-1">
          <mxGeometry relative="1" as="geometry">
            <mxPoint x="750" y="700" as="sourcePoint" />
            <mxPoint x="150" y="350" as="targetPoint" />
            <Array as="points">
              <mxPoint x="950" y="710" />
              <mxPoint x="120" y="710" />
              <mxPoint x="120" y="340" />
            </Array>
          </mxGeometry>
        </mxCell>
        <mxCell id="8l2GJ8tF7-ZwVZrpQlIH-39" value="&lt;span style=&quot;font-size: 16px;&quot;&gt;Ок&lt;/span&gt;" style="edgeLabel;html=1;align=center;verticalAlign=middle;resizable=0;points=[];" vertex="1" connectable="0" parent="8l2GJ8tF7-ZwVZrpQlIH-38">
          <mxGeometry x="0.1153" y="1" relative="1" as="geometry">
            <mxPoint x="603" y="21" as="offset" />
          </mxGeometry>
        </mxCell>
      </root>
    </mxGraphModel>
  </diagram>
</mxfile>
